<?xml version="1.0" encoding="utf-8"?><svg xmlns="http://www.w3.org/2000/svg" xmlns:xlink="http://www.w3.org/1999/xlink"><symbol viewBox="0 0 96.12 96.12" id="facebook" xmlns="http://www.w3.org/2000/svg"><path d="M72.089.02L59.624 0C45.62 0 36.57 9.285 36.57 23.656v10.907H24.037a1.96 1.96 0 0 0-1.96 1.961v15.803a1.96 1.96 0 0 0 1.96 1.96H36.57v39.876a1.96 1.96 0 0 0 1.96 1.96h16.352a1.96 1.96 0 0 0 1.96-1.96V54.287h14.654a1.96 1.96 0 0 0 1.96-1.96l.006-15.803a1.963 1.963 0 0 0-1.961-1.961H56.842v-9.246c0-4.444 1.059-6.7 6.848-6.7l8.397-.003a1.96 1.96 0 0 0 1.959-1.96V1.98A1.96 1.96 0 0 0 72.089.02z"/></symbol><symbol viewBox="0 0 0 0" id="icons" xmlns="http://www.w3.org/2000/svg"/><symbol viewBox="0 0 510 510" id="instagram" xmlns="http://www.w3.org/2000/svg"><path d="M459 0H51C22.95 0 0 22.95 0 51v408c0 28.05 22.95 51 51 51h408c28.05 0 51-22.95 51-51V51c0-28.05-22.95-51-51-51zM255 153c56.1 0 102 45.9 102 102s-45.9 102-102 102-102-45.9-102-102 45.9-102 102-102zM63.75 459C56.1 459 51 453.9 51 446.25V229.5h53.55C102 237.15 102 247.35 102 255c0 84.15 68.85 153 153 153s153-68.85 153-153c0-7.65 0-17.85-2.55-25.5H459v216.75c0 7.65-5.1 12.75-12.75 12.75H63.75zM459 114.75c0 7.65-5.1 12.75-12.75 12.75h-51c-7.65 0-12.75-5.1-12.75-12.75v-51c0-7.65 5.1-12.75 12.75-12.75h51C453.9 51 459 56.1 459 63.75v51z"/></symbol><symbol viewBox="0 0 39 23" id="next" xmlns="http://www.w3.org/2000/svg"><defs><path id="da" d="M612.004 1021.143l2.068-2.14 11.917 11.497-11.916 11.497-2.07-2.14 8.144-7.857H587v-3h33.148z"/></defs><use transform="translate(-587 -1019)" xlink:href="#da"/></symbol><symbol viewBox="0 0 612 612" id="twitter" xmlns="http://www.w3.org/2000/svg"><path d="M612 116.258a250.714 250.714 0 0 1-72.088 19.772c25.929-15.527 45.777-40.155 55.184-69.411-24.322 14.379-51.169 24.82-79.775 30.48-22.907-24.437-55.49-39.658-91.63-39.658-69.334 0-125.551 56.217-125.551 125.513 0 9.828 1.109 19.427 3.251 28.606-104.326-5.24-196.835-55.223-258.75-131.174-10.823 18.51-16.98 40.078-16.98 63.101 0 43.559 22.181 81.993 55.835 104.479a125.556 125.556 0 0 1-56.867-15.756v1.568c0 60.806 43.291 111.554 100.693 123.104-10.517 2.83-21.607 4.398-33.08 4.398-8.107 0-15.947-.803-23.634-2.333 15.985 49.907 62.336 86.199 117.253 87.194-42.947 33.654-97.099 53.655-155.916 53.655-10.134 0-20.116-.612-29.944-1.721 55.567 35.681 121.536 56.485 192.438 56.485 230.948 0 357.188-191.291 357.188-357.188l-.421-16.253c24.666-17.593 46.005-39.697 62.794-64.861z"/></symbol><symbol viewBox="-21 -117 682.67 682" id="youtube" xmlns="http://www.w3.org/2000/svg"><path d="M626.813 64.035c-7.375-27.418-28.993-49.031-56.407-56.414C520.324-6.082 319.992-6.082 319.992-6.082s-200.324 0-250.406 13.184c-26.887 7.375-49.031 29.52-56.406 56.933C0 114.113 0 217.97 0 217.97s0 104.379 13.18 153.933c7.382 27.414 28.992 49.028 56.41 56.41C120.195 442.02 320 442.02 320 442.02s200.324 0 250.406-13.184c27.418-7.379 49.032-28.992 56.414-56.406 13.176-50.082 13.176-153.934 13.176-153.934s.527-104.383-13.183-154.46zM256.21 313.915V122.022l166.586 95.946zm0 0"/></symbol></svg>